<svg id="Layer_1" data-name="Layer 1" xmlns="http://www.w3.org/2000/svg" viewBox="0 0 3000 3000"><defs><style>.cls-1,.cls-2{fill:none;}.cls-1{stroke:#ff1d25;stroke-miterlimit:10;stroke-width:150px;}.cls-3{fill:#333;}.cls-4{fill:#ff1e25;}.cls-5{font-size:451px;font-family:Regular, RR Beaver;}.cls-6{letter-spacing:-0.08em;}</style></defs><title>Artboard 1</title><line class="cls-1" x1="598" y1="302" x2="598" y2="1971"/><line class="cls-1" x1="859" y1="650" x2="859" y2="1971"/><line class="cls-1" x1="598" y1="1897" x2="784" y2="1897"/><line class="cls-1" x1="598" y1="377" x2="1760" y2="377"/><line class="cls-1" x1="784" y1="615" x2="1592" y2="615"/><line class="cls-1" x1="1033" y1="1896" x2="1593" y2="1897"/><line class="cls-1" x1="1109" y1="1160" x2="1109" y2="1894"/><path class="cls-1" d="M2166,1897h150.62C2428.83,1715.1,2528,1461.06,2528,1272.5c0-495.12-367.13-896.5-820-896.5"/><line class="cls-1" x1="2205" y1="1908" x2="1143" y2="1224"/><ellipse class="cls-2" cx="1764.5" cy="1278" rx="830.5" ry="976"/><path class="cls-3" d="M2060.54,1545.08a571.1,571.1,0,0,1-96,119l126.36,81.39a722.11,722.11,0,0,0,94.35-120Z"/><path class="cls-4" d="M1592,541V689.84c305.29,14.53,548.27,262.64,548.27,566.6S1897.29,1808.5,1592,1823v147.85c389.66-20.81,699-332.93,699-714.94S1981.66,561.81,1592,541Z"/><path class="cls-3" d="M2132.36,1699.1l-124.82-80.39a575.66,575.66,0,0,1-43,45.46l126.37,81.39Q2112.61,1723.21,2132.36,1699.1Z"/><path class="cls-3" d="M1970.52,1845.74l-136.69-88a578.33,578.33,0,0,1-67.26,29.88l145.24,93.54Q1942.07,1864.73,1970.52,1845.74Z"/><polygon class="cls-3" points="1034 1316.04 1184 1412.65 1184 1339.46 1034 1242.85 1034 1316.04"/><text class="cls-5" transform="translate(661 2522)">D<tspan class="cls-6" x="260.67" y="0">Y</tspan><tspan x="461.37" y="0">NAMIK</tspan></text></svg>