<svg id="Layer_1" data-name="Layer 1" xmlns="http://www.w3.org/2000/svg" viewBox="0 0 3000 3000"><defs><style>.cls-1,.cls-2{fill:none;}.cls-1{stroke:#ff1d25;stroke-miterlimit:10;stroke-width:150px;}.cls-3{fill:#333;}.cls-4{fill:#ff1e25;}</style></defs><title>Artboard 1</title><line class="cls-1" x1="598" y1="619" x2="598" y2="2288"/><line class="cls-1" x1="859" y1="967" x2="859" y2="2288"/><line class="cls-1" x1="598" y1="2214" x2="784" y2="2214"/><line class="cls-1" x1="598" y1="694" x2="1760" y2="694"/><line class="cls-1" x1="784" y1="932" x2="1592" y2="932"/><line class="cls-1" x1="1033" y1="2213" x2="1593" y2="2214"/><line class="cls-1" x1="1109" y1="1477" x2="1109" y2="2211"/><path class="cls-1" d="M2166,2214h150.62C2428.83,2032.1,2528,1778.06,2528,1589.5c0-495.12-367.13-896.5-820-896.5"/><line class="cls-1" x1="2205" y1="2225" x2="1143" y2="1541"/><ellipse class="cls-2" cx="1764.5" cy="1595" rx="830.5" ry="976"/><path class="cls-3" d="M2060.54,1862.08a571.1,571.1,0,0,1-96,119l126.36,81.39a722.11,722.11,0,0,0,94.35-120Z"/><path class="cls-4" d="M1592,858v148.84c305.29,14.53,548.27,262.64,548.27,566.6S1897.29,2125.5,1592,2140v147.85c389.66-20.81,699-332.93,699-714.94S1981.66,878.81,1592,858Z"/><path class="cls-3" d="M2132.36,2016.1l-124.82-80.39a575.66,575.66,0,0,1-43,45.46l126.37,81.39Q2112.61,2040.21,2132.36,2016.1Z"/><path class="cls-3" d="M1970.52,2162.74l-136.69-88a578.33,578.33,0,0,1-67.26,29.88l145.24,93.54Q1942.07,2181.73,1970.52,2162.74Z"/><polygon class="cls-3" points="1034 1633.04 1184 1729.65 1184 1656.46 1034 1559.85 1034 1633.04"/></svg>